<svg xmlns="http://www.w3.org/2000/svg" width="72" height="71" fill="none" viewBox="0 0 72 71">
  <path fill="#B8E222" d="M8.422 0h2.453v19.257H8.422z"/>
  <path fill="#B8E222" d="M19.266 8.406v2.452H.003V8.406zM60.156 0h2.453v19.257h-2.453z"/>
  <path fill="#B8E222" d="M71.016 8.406v2.452H51.753V8.406zm-10.86 43.336h2.453v19.257h-2.453z"/>
  <path fill="#B8E222" d="M71.016 60.145v2.452H51.753v-2.452zM8.422 51.742h2.453v19.257H8.422z"/>
  <path fill="#B8E222" d="M19.266 60.145v2.452H.003v-2.452zM9.297 21.766h.65v26.036h-.65zm52.094 0h.65v26.036h-.65zM48.656 9.293v.65H22.611v-.65zm0 51.762v.65H22.611v-.65zM23.734 23.391h23.534v24.214H23.734z"/>
</svg>
