<svg xmlns="http://www.w3.org/2000/svg" width="517" height="171" fill="none" viewBox="0 0 517 171">
  <path fill="#B8E222" d="M20.578 32.819v-2.042h14.253v2.042h-5.976v16.963h-2.3V32.819h-5.977Zm17.805 16.963V30.777h2.301v8.463h10.134v-8.463h2.301v19.005h-2.301v-8.5H40.685v8.5h-2.302Zm19.343 0V30.777h11.47v2.042h-9.168v6.421h8.574v2.042h-8.574v6.458h9.316v2.042H57.726ZM34.61 68.385a6.706 6.706 0 0 0-.808-1.68 5.183 5.183 0 0 0-1.178-1.28 4.946 4.946 0 0 0-1.54-.807 6.139 6.139 0 0 0-1.893-.278 5.64 5.64 0 0 0-3.072.872c-.922.581-1.655 1.438-2.2 2.57-.544 1.132-.816 2.521-.816 4.167 0 1.645.275 3.034.826 4.166.55 1.132 1.296 1.99 2.236 2.57.94.582 1.999.873 3.174.873 1.089 0 2.048-.232 2.877-.696a4.936 4.936 0 0 0 1.948-1.986c.47-.86.706-1.871.706-3.034l.705.148h-5.716v-2.04h7.238v2.041c0 1.565-.334 2.926-1.003 4.083a6.924 6.924 0 0 1-2.746 2.692c-1.163.63-2.5.946-4.009.946-1.683 0-3.161-.396-4.436-1.188-1.268-.792-2.258-1.918-2.97-3.378-.704-1.46-1.057-3.192-1.057-5.196 0-1.504.201-2.855.603-4.055.409-1.207.984-2.234 1.726-3.081a7.548 7.548 0 0 1 2.636-1.949c1.014-.451 2.13-.677 3.35-.677 1.002 0 1.936.151 2.802.454a7.527 7.527 0 0 1 2.33 1.272 7.24 7.24 0 0 1 1.716 1.958c.458.754.773 1.593.946 2.514H34.61Zm6.428 13.066V62.447h2.302v16.962h8.834v2.042H41.037Zm29.994-9.502c0 2.004-.362 3.736-1.086 5.196-.724 1.46-1.717 2.586-2.979 3.378-1.262.792-2.703 1.188-4.324 1.188-1.62 0-3.062-.396-4.324-1.188-1.262-.792-2.255-1.918-2.979-3.378-.724-1.46-1.086-3.192-1.086-5.196 0-2.005.362-3.737 1.086-5.197.724-1.46 1.717-2.586 2.979-3.377 1.262-.792 2.703-1.188 4.324-1.188s3.062.396 4.324 1.188c1.262.791 2.255 1.917 2.979 3.377.724 1.46 1.086 3.192 1.086 5.197Zm-2.227 0c0-1.646-.276-3.035-.826-4.167-.545-1.132-1.284-1.989-2.218-2.57-.928-.582-1.967-.873-3.118-.873-1.15 0-2.193.291-3.127.873-.928.581-1.667 1.438-2.218 2.57-.544 1.132-.816 2.521-.816 4.167 0 1.645.272 3.034.816 4.166.55 1.132 1.29 1.99 2.218 2.57.934.582 1.976.873 3.127.873 1.15 0 2.19-.29 3.118-.872.934-.582 1.673-1.439 2.218-2.57.55-1.133.826-2.522.826-4.167ZM74.9 81.45V62.447h6.644c1.324 0 2.417.228 3.276.686.86.452 1.5 1.061 1.921 1.828.42.761.631 1.606.631 2.534 0 .816-.145 1.49-.436 2.022a3.395 3.395 0 0 1-1.132 1.263 5.154 5.154 0 0 1-1.513.686v.186c.582.037 1.166.241 1.754.612.588.371 1.08.904 1.475 1.596.396.693.594 1.54.594 2.543 0 .953-.216 1.81-.65 2.57-.432.761-1.116 1.365-2.05 1.81-.934.445-2.15.668-3.647.668H74.9Zm2.302-2.042h4.566c1.502 0 2.57-.29 3.2-.872.638-.588.956-1.299.956-2.134a3.39 3.39 0 0 0-.492-1.782 3.557 3.557 0 0 0-1.401-1.317c-.606-.335-1.324-.502-2.153-.502h-4.676v6.607Zm0-8.61h4.269c.692 0 1.317-.137 1.874-.41a3.278 3.278 0 0 0 1.336-1.15c.334-.495.501-1.076.501-1.744 0-.836-.291-1.544-.872-2.125-.581-.588-1.504-.882-2.766-.882h-4.342v6.31ZM92.675 81.45h-2.412l6.978-19.004h2.375l6.979 19.004h-2.413l-5.679-15.998h-.149L92.675 81.45Zm.89-7.424h9.726v2.042h-9.725v-2.042Zm15.99 7.424V62.447h2.301v16.962h8.834v2.042h-11.135Zm-87.938 31.67V94.115h6.422c1.49 0 2.71.27 3.656.808.953.532 1.658 1.253 2.116 2.162.458.91.686 1.924.686 3.044s-.228 2.137-.686 3.053c-.452.916-1.15 1.646-2.097 2.189-.947.539-2.16.808-3.638.808h-4.603v-2.041h4.529c1.02 0 1.84-.177 2.459-.53.619-.352 1.067-.829 1.345-1.429.285-.605.427-1.289.427-2.05 0-.761-.142-1.441-.427-2.041-.278-.6-.73-1.07-1.354-1.411-.625-.346-1.454-.52-2.487-.52h-4.046v16.963h-2.302Zm15.428 0h-2.413l6.978-19.005h2.376l6.978 19.005H48.55l-5.679-15.998h-.148l-5.68 15.998Zm.89-7.423h9.725v2.041h-9.724v-2.041Zm31.059-11.582v19.005h-2.227L56.41 98.198h-.186v14.922h-2.301V94.115h2.227l10.393 14.959h.186V94.115h2.264Zm4.605 19.005V94.115h11.47v2.042H75.9v6.421h8.574v2.042H75.9v6.458h9.317v2.042H73.6Zm15.617 0V94.115h2.302v16.963h8.834v2.042H89.216Zm208.567 53.097h-3.642v-11.802h3.803c1.145 0 2.124.236 2.939.709.814.469 1.439 1.142 1.872 2.023.435.876.652 1.925.652 3.146 0 1.23-.219 2.288-.657 3.175a4.676 4.676 0 0 1-1.914 2.04c-.837.473-1.855.709-3.053.709Zm-2.213-1.268h2.12c.976 0 1.785-.188 2.427-.564a3.486 3.486 0 0 0 1.434-1.608c.315-.695.473-1.523.473-2.484 0-.953-.156-1.773-.467-2.46a3.444 3.444 0 0 0-1.394-1.591c-.619-.373-1.389-.559-2.312-.559h-2.281v9.266Zm10.164 1.268h-1.499l4.334-11.802h1.475l4.334 11.802h-1.499l-3.526-9.935h-.093l-3.526 9.935Zm.553-4.61h6.039v1.268h-6.039v-1.268Zm9.929 4.61v-11.802h1.43v10.534h5.485v1.268h-6.915Zm7.559-11.802h1.637l3.273 5.509h.139l3.273-5.509h1.636l-4.264 6.938v4.864h-1.429v-4.864l-4.265-6.938Zm25.73 0v11.802h-1.383l-6.432-9.266h-.114v9.266h-1.43v-11.802h1.383l6.455 9.29h.115v-9.29h1.406Zm2.859 11.802v-11.802h7.124v1.268h-5.694v3.988h5.325v1.267h-5.325v4.011h5.785v1.268h-7.215Zm11.843 0-3.227-11.802h1.452l2.466 9.612h.116l2.513-9.612h1.613l2.513 9.612h.115l2.466-9.612h1.452l-3.227 11.802h-1.475l-2.604-9.404h-.093l-2.605 9.404h-1.475Zm19.714-8.852a1.806 1.806 0 0 0-.841-1.359c-.491-.323-1.095-.485-1.809-.485-.523 0-.98.085-1.372.254a2.18 2.18 0 0 0-.91.697 1.667 1.667 0 0 0-.323 1.009c0 .315.075.586.225.812.153.224.35.41.588.559.237.147.488.267.749.364a9.5 9.5 0 0 0 .72.225l1.199.322c.307.081.649.192 1.025.334.381.142.744.336 1.09.583.35.241.637.552.864.933.227.38.34.847.34 1.4 0 .638-.167 1.214-.501 1.729-.33.515-.815.924-1.452 1.227-.634.304-1.405.455-2.311.455-.846 0-1.577-.136-2.196-.408-.615-.273-1.099-.653-1.453-1.142a3.258 3.258 0 0 1-.593-1.7h1.475c.039.446.189.815.45 1.107.265.288.599.503 1.002.645a4.05 4.05 0 0 0 1.315.208 3.88 3.88 0 0 0 1.469-.265c.434-.181.778-.43 1.032-.749.253-.323.38-.699.38-1.13 0-.392-.11-.71-.329-.957a2.405 2.405 0 0 0-.864-.599 9.123 9.123 0 0 0-1.158-.403l-1.453-.416c-.921-.264-1.651-.642-2.19-1.134-.537-.493-.806-1.135-.806-1.931 0-.66.179-1.237.536-1.728a3.55 3.55 0 0 1 1.452-1.153c.611-.277 1.293-.415 2.045-.415.761 0 1.437.136 2.03.409.591.269 1.06.638 1.406 1.106.349.469.533 1.001.552 1.596h-1.383Zm11.732 6.778v-7.607h1.291v7.607h-1.291Zm-3.158-3.159v-1.29h7.607v1.29h-7.607Zm15.63 5.233h-1.498l4.333-11.802h1.476l4.333 11.802h-1.498l-3.527-9.935h-.092l-3.527 9.935Zm.554-4.61h6.039v1.268h-6.039v-1.268Zm11.358-7.192v11.802h-1.429v-11.802h1.429Zm7.914 11.802h-1.499l4.334-11.802h1.475l4.334 11.802h-1.499l-3.526-9.935h-.093l-3.526 9.935Zm.553-4.61h6.04v1.268h-6.04v-1.268Zm16.384-4.242a1.807 1.807 0 0 0-.842-1.359c-.492-.323-1.095-.485-1.809-.485-.523 0-.98.085-1.372.254a2.196 2.196 0 0 0-.911.697 1.68 1.68 0 0 0-.322 1.009c0 .315.075.586.225.812.154.224.349.41.587.559.239.147.488.267.749.364.262.092.502.167.721.225l1.199.322c.307.081.649.192 1.026.334.38.142.743.336 1.088.583.35.241.638.552.865.933.227.38.34.847.34 1.4 0 .638-.167 1.214-.502 1.729-.33.515-.814.924-1.452 1.227-.633.304-1.403.455-2.311.455-.845 0-1.577-.136-2.195-.408-.615-.273-1.099-.653-1.452-1.142a3.25 3.25 0 0 1-.594-1.7h1.476c.038.446.187.815.449 1.107a2.43 2.43 0 0 0 1.003.645c.407.139.845.208 1.313.208.546 0 1.036-.089 1.47-.265.434-.181.778-.43 1.031-.749.254-.323.381-.699.381-1.13 0-.392-.11-.71-.328-.957a2.426 2.426 0 0 0-.865-.599 9.123 9.123 0 0 0-1.158-.403l-1.452-.416c-.923-.264-1.653-.642-2.19-1.134-.538-.493-.807-1.135-.807-1.931 0-.66.179-1.237.536-1.728a3.55 3.55 0 0 1 1.452-1.153c.611-.277 1.293-.415 2.046-.415.761 0 1.437.136 2.028.409.592.269 1.06.638 1.406 1.106.35.469.535 1.001.554 1.596h-1.383Zm10.348 0a1.809 1.809 0 0 0-.841-1.359c-.492-.323-1.095-.485-1.809-.485-.523 0-.981.085-1.372.254a2.19 2.19 0 0 0-.911.697 1.673 1.673 0 0 0-.322 1.009c0 .315.074.586.224.812.154.224.35.41.588.559.238.147.488.267.749.364.261.092.501.167.721.225l1.198.322c.308.081.65.192 1.026.334.38.142.743.336 1.089.583.35.241.638.552.865.933.226.38.339.847.339 1.4 0 .638-.167 1.214-.501 1.729-.33.515-.815.924-1.452 1.227-.634.304-1.404.455-2.311.455-.845 0-1.577-.136-2.196-.408-.614-.273-1.098-.653-1.452-1.142a3.258 3.258 0 0 1-.593-1.7h1.475c.038.446.188.815.449 1.107.266.288.6.503 1.003.645a4.04 4.04 0 0 0 1.314.208c.545 0 1.036-.089 1.469-.265.435-.181.779-.43 1.032-.749a1.78 1.78 0 0 0 .381-1.13c0-.392-.11-.71-.329-.957a2.413 2.413 0 0 0-.864-.599 9.14 9.14 0 0 0-1.159-.403l-1.452-.416c-.922-.264-1.652-.642-2.19-1.134-.538-.493-.806-1.135-.806-1.931 0-.66.178-1.237.536-1.728a3.543 3.543 0 0 1 1.452-1.153c.61-.277 1.293-.415 2.046-.415.76 0 1.437.136 2.028.409.591.269 1.06.638 1.406 1.106a2.76 2.76 0 0 1 .553 1.596h-1.383Zm5.323-2.95v11.802h-1.429v-11.802h1.429Zm9.32 2.95a1.806 1.806 0 0 0-.841-1.359c-.492-.323-1.095-.485-1.809-.485-.523 0-.98.085-1.372.254a2.19 2.19 0 0 0-.911.697 1.68 1.68 0 0 0-.322 1.009c0 .315.074.586.225.812.153.224.349.41.587.559.239.147.488.267.749.364.261.092.502.167.721.225l1.198.322c.308.081.65.192 1.026.334.38.142.744.336 1.089.583.35.241.638.552.865.933.227.38.34.847.34 1.4 0 .638-.167 1.214-.502 1.729-.33.515-.814.924-1.452 1.227-.633.304-1.404.455-2.311.455-.845 0-1.577-.136-2.195-.408-.615-.273-1.099-.653-1.452-1.142a3.25 3.25 0 0 1-.594-1.7h1.476c.038.446.187.815.448 1.107.266.288.6.503 1.004.645.406.139.844.208 1.313.208.546 0 1.036-.089 1.469-.265.435-.181.779-.43 1.032-.749.254-.323.381-.699.381-1.13 0-.392-.11-.71-.329-.957a2.413 2.413 0 0 0-.864-.599 9.14 9.14 0 0 0-1.159-.403l-1.452-.416c-.922-.264-1.652-.642-2.189-1.134-.538-.493-.807-1.135-.807-1.931 0-.66.179-1.237.536-1.728a3.55 3.55 0 0 1 1.452-1.153c.611-.277 1.293-.415 2.046-.415.76 0 1.437.136 2.028.409.591.269 1.06.638 1.406 1.106.35.469.535 1.001.554 1.596h-1.384Zm3.249-1.682v-1.268h8.851v1.268h-3.71v10.534h-1.43v-10.534h-3.711Zm10.163 10.534h-1.498l4.334-11.802h1.475l4.333 11.802h-1.498l-3.527-9.935h-.092l-3.527 9.935Zm.553-4.61h6.039v1.268h-6.039v-1.268Zm19.288-7.192v11.802h-1.383l-6.431-9.266h-.115v9.266h-1.43v-11.802h1.383l6.454 9.29h.116v-9.29h1.406Zm2.215 1.268v-1.268h8.851v1.268h-3.711v10.534h-1.43v-10.534h-3.71ZM13.23 0h-2.988v23.467h2.988V0Z"/>
  <path fill="#B8E222" d="M23.469 13.226v-2.988H.002v2.988h23.467ZM13.23 120.434h-2.988V143.9h2.988v-23.466Z"/>
  <path fill="#B8E222" d="M23.469 133.659v-2.987H.002v2.987h23.467Zm108.644-13.225h-2.988V143.9h2.988v-23.466Z"/>
  <path fill="#B8E222" d="M142.352 133.659v-2.987h-23.467v2.987h23.467ZM132.113 0h-2.988v23.467h2.988V0Z"/>
  <path fill="#B8E222" d="M142.352 13.226v-2.988h-23.467v2.988h23.467Z"/>
  <path stroke="#B8E222" d="M278.891 154.258H29.421v11.563h249.47v-11.563Z"/>
  <path fill="#B8E222" d="M5.207 153.863h13.23v12.356H5.207v-12.356Zm511.261-20.202H130.617V11.734h385.851v121.927ZM361.715 39.489a17.943 17.943 0 0 1-2.836 5.343c-1.017 1.38-2.435 2.69-4.252 3.925-1.817 1.163-4.108 1.89-6.87 2.181v16.028c0 .8-.254 1.527-.763 2.181-.436.654-1.054 1.09-1.853 1.308h-.109c1.817.51 2.725 1.673 2.725 3.49V94.77c-1.09.218-1.925.654-2.507 1.309-.509.58-.872 1.163-1.09 1.745a4.89 4.89 0 0 0-.328 2.288c.218-.944.546-1.562.982-1.853.509-.363.981-.581 1.417-.654.436-.073.799-.036 1.091.11l.544.109.874.326 14.719 5.67.763.327c.218-.654.51-1.381.873-2.18.364-.654.763-1.382 1.199-2.181.509-.8 1.163-1.6 1.963-2.399v19.517a48.986 48.986 0 0 0-5.779-3.052c-1.672-.8-3.562-1.527-5.67-2.181-2.108-.654-4.107-.981-5.997-.981-1.527 0-2.945.618-4.253 1.853a25.58 25.58 0 0 0-3.38 4.144c-1.163 1.817-2.181 3.816-3.052 5.997.654-1.017 1.489-1.745 2.507-2.181 1.017-.437 2.144-.691 3.38-.764 1.236 0 2.545.146 3.925.437 1.454.363 2.836.763 4.144 1.199 3.125 1.163 6.506 2.763 10.14 4.797l.545-1.744c.437-1.09 1.164-2.326 2.182-3.707 1.09-1.309 2.544-2.581 4.361-3.817 1.817-1.236 4.107-1.998 6.869-2.289v-40.67c0-1.817.909-2.98 2.726-3.49h-.109a3.637 3.637 0 0 1-1.963-1.308 3.848 3.848 0 0 1-.654-2.18l.11-18.1c1.09-.219 1.889-.619 2.398-1.2.509-.582.872-1.164 1.09-1.745.291-.727.401-1.526.328-2.398-.218.944-.582 1.598-1.091 1.962-.436.363-.872.582-1.308.655-.436 0-.836-.037-1.2-.11l-.436-.218-.872-.327-14.72-5.67-.763-.327Zm-113.125-16.9c0 .072-.4.908-1.2 2.507-.799 1.527-2.326 3.453-4.579 5.78-.582.58-1.527 1.271-2.834 2.07a39.828 39.828 0 0 1-3.817 2.182 82.291 82.291 0 0 1-5.016 2.398c.654 0 1.236.073 1.744.219.436.145.836.4 1.2.763.363.29.544.727.544 1.308v8.941c.437 0 .801-.363 1.091-1.09.364-.8.873-1.672 1.527-2.617.654-.945 1.527-1.78 2.617-2.508 1.163-.8 2.726-1.2 4.689-1.2v-8.94l10.576 4.034v58.771l-16.356-6.106c-3.198-.944-6.07-1.053-8.614-.327-2.471.727-4.579 1.962-6.323 3.707-1.672 1.672-2.981 3.635-3.926 5.888-.872 2.254-1.308 4.398-1.308 6.433 0 1.163.218 2.326.654 3.489a10.62 10.62 0 0 0 1.853 3.162c.8.946 1.709 1.71 2.727 2.291a6.669 6.669 0 0 0 3.489.981c-1.382-.291-2.581-.836-3.599-1.636-.945-.727-1.781-1.744-2.508-3.053-.727-1.308-1.09-3.126-1.09-5.452 0-2.035.509-3.707 1.526-5.015 1.091-1.236 2.472-2.071 4.144-2.508 1.745-.509 3.744-.545 5.997-.109 2.253.364 4.579 1.2 6.978 2.508l5.234 2.398 5.235 2.399.762-.981c.509-.582 1.163-1.308 1.963-2.181a442.63 442.63 0 0 0 2.944-2.726 31.336 31.336 0 0 1 3.598-2.726 19.263 19.263 0 0 1 4.034-2.07c1.382-.51 2.763-.728 4.144-.656-1.09-.871-1.635-2.035-1.635-3.489V74.272a5.8 5.8 0 0 1 .763-1.963 3.303 3.303 0 0 1 1.744-1.2l1.527-.544-1.527-.546c-1.454-.436-2.289-1.49-2.507-3.162v-32.71c2.108-.8 3.634-1.673 4.579-2.618.945-1.017 1.599-1.927 1.963-2.726a5.067 5.067 0 0 0 .217-2.944c0 1.309-.363 2.253-1.09 2.835-.727.582-1.49.946-2.29 1.09-1.017.219-2.144.183-3.379-.108l-14.503-5.562c-.726-.29-1.38-.799-1.962-1.526Zm83.092 16.682c-.146.509-.364 1.09-.655 1.744-.29.582-.654 1.2-1.09 1.854a15.112 15.112 0 0 1-1.418 2.072c-.872-.073-2.071-.436-3.598-1.09-1.454-.727-3.235-2.254-5.342-4.58l-5.779 8.723c.29.509.654.908 1.09 1.2.435.29.872.544 1.308.762a6.88 6.88 0 0 0 1.527.655v16.137c0 1.817-.909 2.98-2.727 3.49v.108c.8.146 1.454.582 1.963 1.31.508.654.764 1.38.764 2.18v24.316l6.433 6.105c.291-1.091.909-2.217 1.853-3.38a61.145 61.145 0 0 1 2.944-3.162 114.628 114.628 0 0 0 2.835-2.726c.8-.8 1.2-1.38 1.2-1.745l-.873.764c-.581.509-1.271.763-2.071.763-.727-.073-1.381-.364-1.963-.872l-.436-.436V73.836c0-.8.218-1.526.654-2.18.509-.728 1.164-1.2 1.964-1.419a3.638 3.638 0 0 1-1.964-1.308 3.848 3.848 0 0 1-.654-2.18V48.43c.073.073.364.254.872.545a39.19 39.19 0 0 0 1.963.763c.8.291 1.672.546 2.617.764.945.218 1.926.327 2.944.327 2.399 0 4.252-.51 5.561-1.527 1.381-1.09 2.399-2.29 3.053-3.598.799-1.454 1.236-3.162 1.308-5.125-.145 1.163-.654 1.927-1.526 2.29-.873.291-1.599.436-2.181.436-1.381 0-2.689-.181-3.925-.545a29.652 29.652 0 0 1-3.381-1.418 19.085 19.085 0 0 1-3.27-2.071Zm69.519 1.853c-.363 1.09-1.09 2.326-2.181 3.708-1.017 1.38-2.434 2.69-4.252 3.925-1.817 1.163-4.107 1.89-6.869 2.181v16.028c0 .8-.254 1.527-.763 2.181-.436.654-1.054 1.09-1.854 1.308l-.109.11c1.817.508 2.726 1.672 2.726 3.489V94.88c-1.091.218-1.927.618-2.508 1.2-.509.58-.872 1.163-1.09 1.745-.291.726-.4 1.525-.328 2.398.219-.945.546-1.563.982-1.854.508-.363.981-.58 1.417-.654.436-.073.8-.036 1.091.11l.545.108.872.218 14.72 5.67.763.436.546-1.635c.436-1.091 1.162-2.326 2.18-3.707 1.091-1.382 2.544-2.654 4.362-3.817 1.817-1.236 4.107-1.998 6.869-2.29v-7.96c0-2.108.182-3.816.546-5.125.363-1.38 1.308-2.252 2.835-2.616-1.817 0-3.199.509-4.144 1.526a46.305 46.305 0 0 0-2.835 3.38 21.472 21.472 0 0 1-3.053 3.272c-1.163.945-2.872 1.417-5.125 1.417 1.236.364 1.854 1.2 1.854 2.508v5.78l-10.577-4.035V71.328c2.399-.291 4.435-1.272 6.107-2.944a73.961 73.961 0 0 0 5.016-5.561c1.598-1.963 3.27-3.708 5.015-5.234 1.744-1.599 3.816-2.398 6.215-2.398-1.236-.51-1.854-1.382-1.854-2.618v-3.707c1.09-.145 1.891-.508 2.4-1.09.581-.654.981-1.273 1.199-1.854.29-.727.399-1.526.327-2.398-.218.944-.582 1.598-1.091 1.962-.436.363-.872.582-1.308.655a6.12 6.12 0 0 1-1.2-.11l-.435-.218-.873-.218-14.721-5.67-.763-.436-.654 1.635Zm-110.209 0c-.363 1.09-1.09 2.327-2.18 3.708-1.017 1.308-2.435 2.58-4.252 3.816-1.817 1.236-4.108 2-6.87 2.29v16.028c0 .8-.254 1.527-.763 2.181-.436.654-1.054 1.09-1.854 1.308h-.109c1.817.51 2.726 1.672 2.726 3.49V94.77c-1.09.218-1.926.654-2.508 1.309-.509.58-.872 1.163-1.091 1.745a4.902 4.902 0 0 0-.327 2.288c.219-.944.546-1.562.982-1.853.508-.363.982-.581 1.418-.654.436-.073.799-.036 1.09.11l.545.109.873.326 14.719 5.67.764.327a17.941 17.941 0 0 1 2.835-5.343c1.018-1.38 2.435-2.653 4.252-3.816 1.818-1.236 4.107-1.999 6.869-2.29V73.946c0-1.817.909-2.98 2.726-3.49h-.108a3.638 3.638 0 0 1-1.964-1.308 3.848 3.848 0 0 1-.654-2.18v-18.21c1.09-.145 1.891-.509 2.399-1.09.582-.654.982-1.273 1.2-1.854.29-.727.399-1.49.327-2.29-.218.945-.581 1.6-1.091 1.963-.436.363-.871.582-1.308.655-.436 0-.836-.037-1.2-.11l-.436-.218-.872-.327-14.72-5.67-.764-.436-.654 1.744Zm7.197 11.558V94.99l-10.576-4.034V48.648l10.576 4.034Zm70.068 0V94.99l-10.576-4.034V48.648l10.576 4.034Zm40.141.11v4.143c0 1.308-.328 2.653-.982 4.034-.654 1.381-1.526 2.69-2.616 3.926a20.561 20.561 0 0 1-3.38 3.271c-1.236.945-2.436 1.563-3.599 1.853V48.648l10.577 4.143Z"/>
  <path fill="#B8E222" d="M112.742 131.285v.792h-83.13v-.792h83.13Zm19.46-100.945v83.132h-.791V30.34h.791Zm-119.582 0v83.132h-.792V30.34h.792Zm100.122-17.814h-83.13v-.792h83.13v.792Z"/>
</svg>
